<svg width="29" height="29" viewBox="0 0 29 29" fill="none" xmlns="http://www.w3.org/2000/svg">
<path d="M14.4275 17.9917C12.5383 17.9917 11.0068 19.5232 11.0068 21.4124V28.2537H17.8482V21.4124C17.8482 19.5232 16.3167 17.9917 14.4275 17.9917Z" fill="white" fill-opacity="0.1"/>
<path d="M11.1993 21.4124C11.1993 19.6295 12.6446 18.1842 14.4275 18.1842C16.2104 18.1842 17.6557 19.6295 17.6557 21.4124V28.0612H11.1993V21.4124Z" stroke="white" stroke-opacity="0.2" stroke-width="0.384946"/>
<path d="M20.1289 21.4122V28.2535H24.6898C26.5789 28.2535 28.1104 26.722 28.1104 24.8329V14.4329C28.1107 13.8406 27.8805 13.2714 27.4685 12.8457L17.7789 2.3705C16.0692 0.520673 13.1837 0.407097 11.3338 2.11679C11.246 2.19803 11.1613 2.28264 11.0801 2.3705L1.4076 12.8423C0.983121 13.2697 0.744957 13.8477 0.745117 14.45V24.8329C0.745117 26.722 2.27661 28.2535 4.16578 28.2535H8.72665V21.4122C8.74797 18.303 11.2583 15.7641 14.2891 15.6909C17.4214 15.6154 20.105 18.1976 20.1289 21.4122Z" fill="white" fill-opacity="0.2"/>
<path d="M20.3214 21.4122L20.3214 21.4108C20.2967 18.0896 17.5253 15.4203 14.2845 15.4985C11.1487 15.5742 8.55621 18.1988 8.53417 21.4109V21.4122V28.0611H4.16578C2.38291 28.0611 0.93759 26.6157 0.93759 24.8329L0.93759 14.45L0.93759 14.45C0.937444 13.8985 1.15551 13.3693 1.54416 12.978L1.54425 12.9781L1.54899 12.9729L11.2215 2.50112C11.2215 2.50111 11.2215 2.50111 11.2215 2.5011C11.2992 2.41699 11.3803 2.33596 11.4645 2.25811C13.2363 0.620595 16 0.729387 17.6375 2.50114L17.6376 2.5012L27.3272 12.9764L27.3271 12.9765L27.3302 12.9796C27.7074 13.3693 27.9182 13.8905 27.9179 14.4328V14.4329V24.8329C27.9179 26.6157 26.4726 28.0611 24.6898 28.0611H20.3214L20.3214 21.4122Z" stroke="white" stroke-opacity="0.2" stroke-width="0.384946"/>
<path d="M14.4275 17.9917C12.5383 17.9917 11.0068 19.5232 11.0068 21.4124V28.2537H17.8482V21.4124C17.8482 19.5232 16.3167 17.9917 14.4275 17.9917Z" fill="white" fill-opacity="0.1"/>
<path d="M11.1993 21.4124C11.1993 19.6295 12.6446 18.1842 14.4275 18.1842C16.2104 18.1842 17.6557 19.6295 17.6557 21.4124V28.0612H11.1993V21.4124Z" stroke="white" stroke-opacity="0.2" stroke-width="0.384946"/>
</svg>
